<svg xmlns="http://www.w3.org/2000/svg" viewBox="0 0 900 1125" width="900" height="1125" role="img">
<defs>
<linearGradient id="agua" x1="0" y1="0" x2="0" y2="1">
<stop offset="0" stop-color="#5ce0cd"/><stop offset=".45" stop-color="#12849a"/><stop offset="1" stop-color="#052f45"/>
</linearGradient>
<linearGradient id="ray" x1="0" y1="0" x2="0" y2="1">
<stop offset="0" stop-color="#dffcff" stop-opacity=".55"/><stop offset="1" stop-color="#dffcff" stop-opacity="0"/>
</linearGradient>
<radialGradient id="vig" cx=".5" cy=".38" r=".78">
<stop offset=".55" stop-color="#000" stop-opacity="0"/><stop offset="1" stop-color="#000" stop-opacity=".5"/>
</radialGradient>
</defs>
<rect width="900" height="1125" fill="url(#agua)"/>
<path d="M-198.4,-20 L-121.8,-20 L-159.5,1125 L-458.9,1125 Z" fill="url(#ray)" opacity="0.4"/><path d="M-188.2,-20 L-136.2,-20 L-274.4,1125 L-465.9,1125 Z" fill="url(#ray)" opacity="0.6"/><path d="M68.1,-20 L154.4,-20 L340.5,1125 L146.1,1125 Z" fill="url(#ray)" opacity="0.4"/><path d="M397.9,-20 L477.1,-20 L533.4,1125 L258,1125 Z" fill="url(#ray)" opacity="0.4"/><path d="M732,-20 L815.4,-20 L1110.4,1125 L933.9,1125 Z" fill="url(#ray)" opacity="0.3"/><path d="M949.2,-20 L1014.6,-20 L1327.1,1125 L1027.1,1125 Z" fill="url(#ray)" opacity="0.5"/><path d="M546.6,-20 L626.8,-20 L769.4,1125 L569.7,1125 Z" fill="url(#ray)" opacity="0.3"/><circle cx="635.8" cy="655" r="9.9" fill="#fff" opacity="0.2"/><circle cx="235.1" cy="97.4" r="6.8" fill="#fff" opacity="0.3"/><circle cx="353.6" cy="168.3" r="10.7" fill="#fff" opacity="0.3"/><circle cx="479.1" cy="1078.4" r="12" fill="#fff" opacity="0.3"/><circle cx="441.4" cy="521.5" r="4.4" fill="#fff" opacity="0.2"/><circle cx="318.8" cy="823.8" r="8.1" fill="#fff" opacity="0.1"/><circle cx="799.7" cy="594.1" r="7.8" fill="#fff" opacity="0.2"/><circle cx="421.9" cy="795.7" r="12.9" fill="#fff" opacity="0.2"/><circle cx="695.6" cy="294.7" r="9.1" fill="#fff" opacity="0.3"/><circle cx="755" cy="504.6" r="6.5" fill="#fff" opacity="0.1"/><circle cx="436.2" cy="1039.2" r="4.4" fill="#fff" opacity="0.1"/><circle cx="743.1" cy="805.8" r="3.9" fill="#fff" opacity="0.2"/><circle cx="404.1" cy="681.6" r="13" fill="#fff" opacity="0.1"/><circle cx="847" cy="511.7" r="6.3" fill="#fff" opacity="0.2"/><circle cx="278" cy="343.1" r="11.5" fill="#fff" opacity="0.2"/><circle cx="512.1" cy="74" r="7.4" fill="#fff" opacity="0.3"/><circle cx="785.2" cy="771.5" r="6.9" fill="#fff" opacity="0.1"/><circle cx="413.5" cy="855.3" r="11.8" fill="#fff" opacity="0.1"/><circle cx="575.4" cy="178.2" r="6.4" fill="#fff" opacity="0.2"/><circle cx="776.7" cy="516.6" r="8.5" fill="#fff" opacity="0.3"/><circle cx="155.5" cy="150.9" r="7.9" fill="#fff" opacity="0.4"/><circle cx="266.7" cy="336.8" r="5.7" fill="#fff" opacity="0.3"/><circle cx="569" cy="756.1" r="6.9" fill="#fff" opacity="0.1"/><circle cx="128.2" cy="219.1" r="3.7" fill="#fff" opacity="0.2"/><circle cx="515.2" cy="112" r="2.1" fill="#fff" opacity="0.1"/><circle cx="150.1" cy="959.8" r="4.1" fill="#fff" opacity="0.3"/><circle cx="29.6" cy="415.1" r="2.4" fill="#fff" opacity="0.1"/><circle cx="217.4" cy="805.2" r="12.9" fill="#fff" opacity="0.2"/><circle cx="144.4" cy="741.3" r="7.8" fill="#fff" opacity="0.3"/><circle cx="872.8" cy="392.5" r="7.2" fill="#fff" opacity="0.3"/><circle cx="751.8" cy="876.4" r="3.6" fill="#fff" opacity="0.3"/><circle cx="674.8" cy="888" r="10.5" fill="#fff" opacity="0.3"/><circle cx="360.5" cy="1005.3" r="9.2" fill="#fff" opacity="0.3"/><circle cx="816.3" cy="597.7" r="11.4" fill="#fff" opacity="0.1"/><circle cx="395.7" cy="136.7" r="7.9" fill="#fff" opacity="0.4"/><circle cx="625.3" cy="960.7" r="9.4" fill="#fff" opacity="0.2"/><circle cx="470.5" cy="390" r="10.6" fill="#fff" opacity="0.2"/><circle cx="525.5" cy="730.2" r="4.9" fill="#fff" opacity="0.3"/><circle cx="348.7" cy="740.8" r="7.1" fill="#fff" opacity="0.3"/><circle cx="500.1" cy="103.9" r="12.9" fill="#fff" opacity="0.1"/><circle cx="867.9" cy="524.6" r="2.6" fill="#fff" opacity="0.3"/><circle cx="218.9" cy="76.3" r="6.6" fill="#fff" opacity="0.4"/><circle cx="366.1" cy="882.1" r="7.6" fill="#fff" opacity="0.1"/><circle cx="200.1" cy="939.8" r="4.4" fill="#fff" opacity="0.1"/><circle cx="28.3" cy="816.9" r="12.1" fill="#fff" opacity="0.2"/><circle cx="79.9" cy="543.9" r="7.8" fill="#fff" opacity="0.1"/><circle cx="430.5" cy="620" r="3.5" fill="#fff" opacity="0.1"/><circle cx="591" cy="998.7" r="12.4" fill="#fff" opacity="0.1"/><circle cx="317.1" cy="40" r="7.2" fill="#fff" opacity="0.4"/><circle cx="490.4" cy="381.2" r="2.5" fill="#fff" opacity="0.2"/><circle cx="864.6" cy="1018.6" r="11.8" fill="#fff" opacity="0.1"/><circle cx="544.3" cy="585.9" r="4.2" fill="#fff" opacity="0.2"/><circle cx="156.6" cy="756.4" r="2.5" fill="#fff" opacity="0.2"/><circle cx="511.6" cy="468.2" r="10.5" fill="#fff" opacity="0.3"/><circle cx="343.5" cy="1008.1" r="10.2" fill="#fff" opacity="0.2"/><circle cx="377.1" cy="567" r="4.1" fill="#fff" opacity="0.4"/><circle cx="244" cy="968.5" r="3.2" fill="#fff" opacity="0.1"/><circle cx="401.6" cy="105.8" r="7.8" fill="#fff" opacity="0.3"/><circle cx="274.2" cy="102.8" r="4.2" fill="#fff" opacity="0.2"/><circle cx="551.8" cy="353" r="6.7" fill="#fff" opacity="0.1"/><circle cx="757.6" cy="486.6" r="4.3" fill="#fff" opacity="0.1"/><circle cx="688.4" cy="370.3" r="7.5" fill="#fff" opacity="0.2"/><circle cx="721.4" cy="1083.4" r="6.4" fill="#fff" opacity="0.2"/><circle cx="607" cy="888.1" r="7.1" fill="#fff" opacity="0.1"/><circle cx="214.4" cy="587.4" r="8.6" fill="#fff" opacity="0.3"/><circle cx="201.8" cy="875.3" r="5.5" fill="#fff" opacity="0.1"/><circle cx="607.2" cy="622.7" r="9.9" fill="#fff" opacity="0.2"/><circle cx="182.6" cy="649.1" r="5.4" fill="#fff" opacity="0.2"/><circle cx="313.6" cy="372.4" r="12.5" fill="#fff" opacity="0.2"/><circle cx="425.2" cy="564.7" r="6.9" fill="#fff" opacity="0.3"/><circle cx="783" cy="262.2" r="3.1" fill="#fff" opacity="0.1"/><circle cx="106.4" cy="584.3" r="5.1" fill="#fff" opacity="0.1"/><circle cx="303.5" cy="40.2" r="3.8" fill="#fff" opacity="0.3"/><circle cx="661.7" cy="319.8" r="4.6" fill="#fff" opacity="0.1"/><circle cx="485.9" cy="565.5" r="7.4" fill="#fff" opacity="0.2"/><circle cx="262" cy="785" r="8.1" fill="#fff" opacity="0.2"/><circle cx="741.2" cy="314" r="6.6" fill="#fff" opacity="0.3"/><circle cx="382.9" cy="807.7" r="9.9" fill="#fff" opacity="0.1"/><circle cx="650.2" cy="926.6" r="5.4" fill="#fff" opacity="0.2"/><circle cx="812.8" cy="168" r="12.4" fill="#fff" opacity="0.3"/><circle cx="677.2" cy="225.1" r="13" fill="#fff" opacity="0.2"/><circle cx="492.6" cy="255.4" r="10.2" fill="#fff" opacity="0.3"/><circle cx="103" cy="873.9" r="10.8" fill="#fff" opacity="0.1"/><circle cx="297" cy="76.2" r="8" fill="#fff" opacity="0.3"/><circle cx="726.4" cy="265.4" r="7.2" fill="#fff" opacity="0.2"/><circle cx="417.9" cy="1057.8" r="2.1" fill="#fff" opacity="0.2"/><circle cx="672.4" cy="1053.5" r="4.7" fill="#fff" opacity="0.3"/><circle cx="393.1" cy="811.2" r="6.3" fill="#fff" opacity="0.3"/><circle cx="48.2" cy="744.9" r="2.7" fill="#fff" opacity="0.3"/><circle cx="571.9" cy="281.1" r="11.7" fill="#fff" opacity="0.4"/><circle cx="879.9" cy="904.4" r="10.9" fill="#fff" opacity="0.1"/><circle cx="222.6" cy="825.9" r="9.9" fill="#fff" opacity="0.2"/><circle cx="255.9" cy="795.8" r="8.6" fill="#fff" opacity="0.3"/><circle cx="511.9" cy="91.2" r="9.7" fill="#fff" opacity="0.3"/><circle cx="216.2" cy="43.7" r="10.2" fill="#fff" opacity="0.3"/><circle cx="392.2" cy="596.4" r="4.4" fill="#fff" opacity="0.4"/><circle cx="825.5" cy="303.7" r="11.6" fill="#fff" opacity="0.3"/><circle cx="551" cy="392.2" r="5.3" fill="#fff" opacity="0.2"/><circle cx="854" cy="997.6" r="13" fill="#fff" opacity="0.2"/><circle cx="256.5" cy="41.8" r="6.9" fill="#fff" opacity="0.3"/><circle cx="369.9" cy="568.8" r="12.6" fill="#fff" opacity="0.3"/><circle cx="263.4" cy="455.7" r="3.9" fill="#fff" opacity="0.3"/><circle cx="473.4" cy="503.3" r="4.5" fill="#fff" opacity="0.1"/><circle cx="679.6" cy="70.9" r="10.6" fill="#fff" opacity="0.1"/><circle cx="353.3" cy="327.7" r="7.6" fill="#fff" opacity="0.3"/><circle cx="839.6" cy="840.2" r="6.1" fill="#fff" opacity="0.1"/><circle cx="199.1" cy="966.6" r="10.7" fill="#fff" opacity="0.2"/><circle cx="39" cy="1013.4" r="5.4" fill="#fff" opacity="0.3"/><circle cx="636.2" cy="768.9" r="12.6" fill="#fff" opacity="0.3"/><circle cx="669" cy="800.2" r="3.9" fill="#fff" opacity="0.2"/><circle cx="684.8" cy="302.1" r="6.2" fill="#fff" opacity="0.2"/><circle cx="550.6" cy="1028.1" r="7.6" fill="#fff" opacity="0.3"/><circle cx="91.5" cy="388.3" r="3.5" fill="#fff" opacity="0.2"/><circle cx="619.4" cy="353.8" r="9.4" fill="#fff" opacity="0.3"/><circle cx="614.6" cy="78.1" r="5.8" fill="#fff" opacity="0.2"/><circle cx="24.9" cy="389.2" r="11.5" fill="#fff" opacity="0.3"/><circle cx="27.8" cy="369" r="8.4" fill="#fff" opacity="0.3"/><circle cx="217.5" cy="415.8" r="11.2" fill="#fff" opacity="0.1"/><circle cx="835.9" cy="1001" r="8.1" fill="#fff" opacity="0.2"/><circle cx="139.4" cy="772.2" r="10.1" fill="#fff" opacity="0.3"/><circle cx="638.2" cy="223.9" r="2.4" fill="#fff" opacity="0.4"/><circle cx="626" cy="706.3" r="10" fill="#fff" opacity="0.3"/><circle cx="803.8" cy="1034" r="8.4" fill="#fff" opacity="0.3"/><circle cx="751.6" cy="952.7" r="12.1" fill="#fff" opacity="0.3"/><circle cx="669.8" cy="400.1" r="10.3" fill="#fff" opacity="0.2"/><circle cx="745.9" cy="669.2" r="7.1" fill="#fff" opacity="0.2"/><circle cx="78.7" cy="1012" r="6.3" fill="#fff" opacity="0.2"/><circle cx="701.7" cy="224.8" r="2.3" fill="#fff" opacity="0.1"/><circle cx="597.9" cy="452.4" r="10.5" fill="#fff" opacity="0.3"/><circle cx="655.6" cy="721" r="5.7" fill="#fff" opacity="0.2"/><path d="M0,1125 L0,1020 Q30,1015.7 60,1000.8 Q90,1040.5 120,1055.4 Q150,1038.6 180,1034.1 Q210,1034.4 240,991.9 Q270,1033.2 300,1043.1 Q330,1005.8 360,1039.3 Q390,996.7 420,988.2 Q450,1045.4 480,1069.2 Q510,962.4 540,1036.3 Q570,954 600,1022.8 Q630,1044.7 660,994.4 Q690,985.1 720,982.2 Q750,969.1 780,1052.1 Q810,1038.8 840,1001.7 Q870,1052.7 900,1020.4 Q930,1047.7 960,1035.7 L900,1125 Z" fill="#010b12" opacity=".92"/>
<rect width="900" height="1125" fill="url(#vig)"/>
</svg>